<?xml version="1.0" encoding="UTF-8" standalone="no"?>
<!DOCTYPE svg PUBLIC "-//W3C//DTD SVG 1.1//EN" "http://www.w3.org/Graphics/SVG/1.1/DTD/svg11.dtd">
<svg width="100%" height="100%" viewBox="0 0 739 668" version="1.1" xmlns="http://www.w3.org/2000/svg" xmlns:xlink="http://www.w3.org/1999/xlink" xml:space="preserve" xmlns:serif="http://www.serif.com/" style="fill-rule:evenodd;clip-rule:evenodd;stroke-linejoin:round;stroke-miterlimit:2;">
    <g transform="matrix(1,0,0,1,-312,-372)">
        <g transform="matrix(1.234671,0,0,1.234671,60.12709,97.90301)">
            <path d="M204,667L204,419C204,302 292,222 411,222C473,222 528,248 566,292L400,341C384,346 373,348 367,356C359,367 358,381 359,402C359,402 358.361,630.685 355,632.75C320,659.25 242,674 204,667Z" style="fill:rgb(250,250,250);fill-rule:nonzero;"/>
        </g>
        <g transform="matrix(1.234671,0,0,1.234671,60.12709,97.90301)">
            <path d="M410,389L784,279C791,277 798,276 802,276L802,552C802,676 714,763 590,763C506,763 435,718 402,644C407,640 410,635 410,626L410,389Z" style="fill:rgb(250,250,250);fill-rule:nonzero;"/>
        </g>
    </g>
</svg>
