<?xml version="1.0" encoding="UTF-8" standalone="no"?>
<!DOCTYPE svg PUBLIC "-//W3C//DTD SVG 1.1//EN" "http://www.w3.org/Graphics/SVG/1.1/DTD/svg11.dtd">
<svg width="100%" height="100%" viewBox="0 0 1366 1366" version="1.1" xmlns="http://www.w3.org/2000/svg" xmlns:xlink="http://www.w3.org/1999/xlink" xml:space="preserve" xmlns:serif="http://www.serif.com/" style="fill-rule:evenodd;clip-rule:evenodd;stroke-linejoin:round;stroke-miterlimit:2;">
    <g transform="matrix(1,0,0,1,-110,-46)">
        <path d="M1384,446L1384,1042C1384,1206.471 1250.471,1340 1086,1340L490,1340C325.529,1340 192,1206.471 192,1042L192,446C192,281.529 325.529,148 490,148L1086,148C1250.471,148 1384,281.529 1384,446Z" style="fill:url(#_Radial1);"/>
    </g>
    <g transform="matrix(1.234671,0,0,1.234671,60.12709,97.90301)">
        <path d="M204,667L204,419C204,302 292,222 411,222C473,222 528,248 566,292L400,341C384,346 373,348 367,356C359,367 358,381 359,402C359,402 358.361,630.685 355,632.75C320,659.25 242,674 204,667Z" style="fill:rgb(250,250,250);fill-rule:nonzero;"/>
    </g>
    <g transform="matrix(1.234671,0,0,1.234671,60.12709,97.90301)">
        <path d="M410,389L784,279C791,277 798,276 802,276L802,552C802,676 714,763 590,763C506,763 435,718 402,644C407,640 410,635 410,626L410,389Z" style="fill:rgb(250,250,250);fill-rule:nonzero;"/>
    </g>
    <defs>
        <radialGradient id="_Radial1" cx="0" cy="0" r="1" gradientUnits="userSpaceOnUse" gradientTransform="matrix(1679,37,-37,1679,296,1150)"><stop offset="0" style="stop-color:rgb(15,15,16);stop-opacity:1"/><stop offset="0.46" style="stop-color:rgb(36,36,37);stop-opacity:1"/><stop offset="1" style="stop-color:rgb(89,89,89);stop-opacity:1"/></radialGradient>
    </defs>
</svg>
